# xmcd CD database file
#
# Track frame offsets:
#	150
#	29690
#	57535
#	73147
#	99327
#	115005
#	129812
#	158012
#	180012
#
# Disc length: 2795 seconds
#
# Revision: 0
# Processed by: cddbd v1.4PL0 Copyright (c) Steve Scherf et al.
# Submitted via: CDex 1.50
#
DISCID=6c0ae909
DTITLE=FANTASTs - When You Wish Upon A Star
DYEAR=1994
DGENRE=Jazz
TTITLE0=Kimi O Nosete - Umi No Mieru Machi
TTITLE1=Over The Rainbow
TTITLE2=When You Wish Upon A Star
TTITLE3=Try To Remember
TTITLE4=Nordic Light
TTITLE5=Brouhaha
TTITLE6=Bibbidi-Bobbidi-Boo
TTITLE7=Chim Chim Cheree
TTITLE8=Kaze No Toorimichi
EXTD=YEAR: 1994
EXTT0=
EXTT1=
EXTT2=
EXTT3=
EXTT4=
EXTT5=
EXTT6=
EXTT7=
EXTT8=
PLAYORDER=
